<svg width="212" height="62" viewBox="0 0 212 62" fill="none" xmlns="http://www.w3.org/2000/svg">
<g filter="url(#filter0_d_253_522)">
<circle cx="31.0007" cy="27" r="17" fill="#1A4D2E"/>
</g>
<g clip-path="url(#clip0_253_522)">
<path d="M32.9992 22.9925H34.0947V21.0845C33.9057 21.0585 33.2557 21 32.4987 21C30.9192 21 29.8372 21.9935 29.8372 23.8195V25.5H28.0942V27.633H29.8372V33H31.9742V27.6335H33.6467L33.9122 25.5005H31.9737V24.031C31.9742 23.4145 32.1402 22.9925 32.9992 22.9925Z" fill="#1A4D2E"/>
</g>
<g filter="url(#filter1_d_253_522)">
<circle cx="81.0007" cy="27" r="17" fill="#1A4D2E"/>
</g>
<g clip-path="url(#clip1_253_522)">
<path d="M84.4817 20H78.5197C76.5793 20 75.0007 21.5786 75.0007 23.519V29.4811C75.0007 31.4214 76.5793 33 78.5197 33H84.4818C86.4221 33 88.0007 31.4214 88.0007 29.4811V23.519C88.0007 21.5786 86.4221 20 84.4817 20V20ZM87.2386 29.4811C87.2386 31.0012 86.0019 32.2379 84.4817 32.2379H78.5197C76.9995 32.2379 75.7628 31.0012 75.7628 29.4811V23.519C75.7628 21.9988 76.9995 20.7621 78.5197 20.7621H84.4818C86.0019 20.7621 87.2386 21.9988 87.2386 23.519V29.4811Z" fill="#1A4D2E"/>
<path d="M81.5007 22.9453C79.5407 22.9453 77.9462 24.5399 77.9462 26.4999C77.9462 28.4599 79.5407 30.0545 81.5007 30.0545C83.4608 30.0545 85.0553 28.4599 85.0553 26.4999C85.0553 24.5399 83.4608 22.9453 81.5007 22.9453ZM81.5007 29.2924C79.961 29.2924 78.7083 28.0397 78.7083 26.4999C78.7083 24.9602 79.961 23.7074 81.5007 23.7074C83.0405 23.7074 84.2932 24.9602 84.2932 26.4999C84.2932 28.0397 83.0405 29.2924 81.5007 29.2924Z" fill="#1A4D2E"/>
<path d="M85.1403 21.6831C84.5611 21.6831 84.09 22.1543 84.09 22.7334C84.09 23.3127 84.5611 23.7839 85.1403 23.7839C85.7195 23.7839 86.1907 23.3127 86.1907 22.7334C86.1907 22.1542 85.7195 21.6831 85.1403 21.6831ZM85.1403 23.0217C84.9814 23.0217 84.8521 22.8923 84.8521 22.7334C84.8521 22.5745 84.9814 22.4452 85.1403 22.4452C85.2993 22.4452 85.4286 22.5745 85.4286 22.7334C85.4286 22.8923 85.2993 23.0217 85.1403 23.0217Z" fill="#1A4D2E"/>
</g>
<g filter="url(#filter2_d_253_522)">
<circle cx="131.001" cy="27" r="17" fill="#1A4D2E"/>
</g>
<g clip-path="url(#clip2_253_522)">
<path d="M137.001 23.4692C136.517 23.6812 136.002 23.8218 135.465 23.8901C136.018 23.5602 136.439 23.0418 136.638 22.417C136.122 22.7241 135.554 22.9411 134.948 23.0621C134.458 22.5413 133.761 22.2188 133.001 22.2188C131.525 22.2188 130.337 23.4164 130.337 24.8846C130.337 25.0958 130.355 25.2989 130.399 25.4923C128.183 25.3842 126.223 24.3223 124.906 22.7046C124.676 23.1036 124.541 23.5602 124.541 24.0518C124.541 24.9748 125.016 25.7929 125.725 26.2666C125.297 26.2585 124.877 26.1342 124.521 25.9384C124.521 25.9465 124.521 25.9571 124.521 25.9676C124.521 27.2627 125.445 28.3385 126.656 28.5863C126.439 28.6456 126.203 28.6741 125.957 28.6741C125.787 28.6741 125.614 28.6643 125.453 28.6286C125.798 29.684 126.778 30.4599 127.943 30.4851C127.036 31.1944 125.885 31.6218 124.639 31.6218C124.42 31.6218 124.21 31.6121 124.001 31.5852C125.181 32.3466 126.58 32.7812 128.089 32.7812C132.993 32.7812 135.675 28.7188 135.675 25.1974C135.675 25.0796 135.671 24.9658 135.665 24.8529C136.194 24.4775 136.638 24.0087 137.001 23.4692Z" fill="#1A4D2E"/>
</g>
<g filter="url(#filter3_d_253_522)">
<circle cx="181.001" cy="27" r="17" fill="#1A4D2E"/>
</g>
<g clip-path="url(#clip3_253_522)">
<path d="M185.998 32V31.9996H186.001V27.9653C186.001 25.9917 185.576 24.4714 183.269 24.4714C182.159 24.4714 181.415 25.0801 181.111 25.6571H181.079V24.6557H178.891V31.9996H181.169V28.3631C181.169 27.4057 181.351 26.4799 182.537 26.4799C183.705 26.4799 183.722 27.5725 183.722 28.4246V32H185.998Z" fill="#1A4D2E"/>
<path d="M175.182 24.656H177.463V31.9999H175.182V24.656Z" fill="#1A4D2E"/>
<path d="M176.322 21C175.592 21 175.001 21.5917 175.001 22.3209C175.001 23.0501 175.592 23.6542 176.322 23.6542C177.051 23.6542 177.643 23.0501 177.643 22.3209C177.642 21.5917 177.05 21 176.322 21V21Z" fill="#1A4D2E"/>
</g>
<defs>
<filter id="filter0_d_253_522" x="0.000732422" y="0" width="62" height="62" filterUnits="userSpaceOnUse" color-interpolation-filters="sRGB">
<feFlood flood-opacity="0" result="BackgroundImageFix"/>
<feColorMatrix in="SourceAlpha" type="matrix" values="0 0 0 0 0 0 0 0 0 0 0 0 0 0 0 0 0 0 127 0" result="hardAlpha"/>
<feOffset dy="4"/>
<feGaussianBlur stdDeviation="7"/>
<feColorMatrix type="matrix" values="0 0 0 0 0 0 0 0 0 0 0 0 0 0 0 0 0 0 0.15 0"/>
<feBlend mode="normal" in2="BackgroundImageFix" result="effect1_dropShadow_253_522"/>
<feBlend mode="normal" in="SourceGraphic" in2="effect1_dropShadow_253_522" result="shape"/>
</filter>
<filter id="filter1_d_253_522" x="50.0007" y="0" width="62" height="62" filterUnits="userSpaceOnUse" color-interpolation-filters="sRGB">
<feFlood flood-opacity="0" result="BackgroundImageFix"/>
<feColorMatrix in="SourceAlpha" type="matrix" values="0 0 0 0 0 0 0 0 0 0 0 0 0 0 0 0 0 0 127 0" result="hardAlpha"/>
<feOffset dy="4"/>
<feGaussianBlur stdDeviation="7"/>
<feColorMatrix type="matrix" values="0 0 0 0 0 0 0 0 0 0 0 0 0 0 0 0 0 0 0.15 0"/>
<feBlend mode="normal" in2="BackgroundImageFix" result="effect1_dropShadow_253_522"/>
<feBlend mode="normal" in="SourceGraphic" in2="effect1_dropShadow_253_522" result="shape"/>
</filter>
<filter id="filter2_d_253_522" x="100.001" y="0" width="62" height="62" filterUnits="userSpaceOnUse" color-interpolation-filters="sRGB">
<feFlood flood-opacity="0" result="BackgroundImageFix"/>
<feColorMatrix in="SourceAlpha" type="matrix" values="0 0 0 0 0 0 0 0 0 0 0 0 0 0 0 0 0 0 127 0" result="hardAlpha"/>
<feOffset dy="4"/>
<feGaussianBlur stdDeviation="7"/>
<feColorMatrix type="matrix" values="0 0 0 0 0 0 0 0 0 0 0 0 0 0 0 0 0 0 0.15 0"/>
<feBlend mode="normal" in2="BackgroundImageFix" result="effect1_dropShadow_253_522"/>
<feBlend mode="normal" in="SourceGraphic" in2="effect1_dropShadow_253_522" result="shape"/>
</filter>
<filter id="filter3_d_253_522" x="150.001" y="0" width="62" height="62" filterUnits="userSpaceOnUse" color-interpolation-filters="sRGB">
<feFlood flood-opacity="0" result="BackgroundImageFix"/>
<feColorMatrix in="SourceAlpha" type="matrix" values="0 0 0 0 0 0 0 0 0 0 0 0 0 0 0 0 0 0 127 0" result="hardAlpha"/>
<feOffset dy="4"/>
<feGaussianBlur stdDeviation="7"/>
<feColorMatrix type="matrix" values="0 0 0 0 0 0 0 0 0 0 0 0 0 0 0 0 0 0 0.15 0"/>
<feBlend mode="normal" in2="BackgroundImageFix" result="effect1_dropShadow_253_522"/>
<feBlend mode="normal" in="SourceGraphic" in2="effect1_dropShadow_253_522" result="shape"/>
</filter>
<clipPath id="clip0_253_522">
<rect width="12" height="12" fill="white" transform="translate(25.0007 21)"/>
</clipPath>
<clipPath id="clip1_253_522">
<rect width="13" height="13" fill="white" transform="translate(75.0007 20)"/>
</clipPath>
<clipPath id="clip2_253_522">
<rect width="13" height="13" fill="white" transform="translate(124.001 21)"/>
</clipPath>
<clipPath id="clip3_253_522">
<rect width="11" height="11" fill="white" transform="translate(175.001 21)"/>
</clipPath>
</defs>
</svg>
